# xmcd CD database file generated by Grip 3.3.1
# 
# Track frame offsets:
#       150
#       17055
#       28865
#       42778
#       65573
#       77955
#       88703
#       105878
#       121113
#       138580
#       156055
#       171353
# 
# Disc length: 2374 seconds
# 
# Revision: 3
# Processed by: cddbd v1.5.2PL0 Copyright (c) Steve Scherf et al.
# Submitted via: Grip 3.3.1
# 
DISCID=9509440c
DTITLE=Cusco - Apurimac
DYEAR=1988
DGENRE=New Age
TTITLE0=Apurimac
TTITLE1=Flute Battle
TTITLE2=Tupac Amaru
TTITLE3=Flying Condor
TTITLE4=Inca Dance
TTITLE5=Pastorale
TTITLE6=Amazonas
TTITLE7=Inca Bridges
TTITLE8=Andes
TTITLE9=Atahualpa - The Last Inca
TTITLE10=Fighting Inca
TTITLE11=Apurimac II
EXTD=YEAR: 1985
EXTT0=
EXTT1=
EXTT2=
EXTT3=
EXTT4=
EXTT5=
EXTT6=
EXTT7=
EXTT8=
EXTT9=
EXTT10=
EXTT11=
PLAYORDER=
